# Blender 4.2.3 LTS
# www.blender.org
mtllib grass4.mtl
o grass
v 0.089219 0.000000 0.080620
v -0.021154 0.000000 0.073925
v 0.028235 0.000000 0.172858
v 0.058832 0.360537 0.133510
v 0.025797 0.336280 0.183937
v 0.017866 0.653776 0.295601
v -0.000733 0.360537 0.129897
v 0.111892 0.000000 0.001794
v 0.159371 0.000000 0.051569
v 0.178737 -0.000000 -0.014436
v 0.139594 0.231434 -0.016065
v 0.190254 0.189803 -0.025422
v 0.241186 0.370448 -0.074005
v 0.178518 0.231434 0.024740
v -0.074132 -0.000000 -0.013231
v 0.010451 -0.000000 -0.060784
v -0.073023 -0.000000 -0.110259
v -0.093449 0.339270 -0.091037
v -0.090247 0.296963 -0.138768
v -0.164543 0.552459 -0.260996
v -0.047802 0.339270 -0.116700
v -0.087974 0.000000 0.143994
v -0.134722 0.000000 0.084618
v -0.162768 0.000000 0.154791
v -0.120129 0.186226 0.160644
v -0.176506 0.152728 0.165607
v -0.237263 0.298086 0.213443
v -0.158453 0.186226 0.111968
vn 0.0599 0.1498 -0.9869
vn -0.0000 -1.0000 -0.0000
vn 0.8358 -0.0110 0.5489
vn 0.8586 -0.1509 0.4899
vn 0.0528 0.4887 -0.8708
vn -0.8968 -0.0194 0.4420
vn -0.9126 -0.1558 0.3781
vn -0.7166 0.1385 0.6836
vn -0.2279 -0.0454 -0.9726
vn -0.3086 -0.1649 -0.9368
vn -0.5605 0.6325 0.5347
vn 0.9608 -0.0454 0.2735
vn 0.9212 -0.1649 0.3524
vn 0.4778 0.2221 0.8499
vn -0.9982 -0.0594 -0.0124
vn -0.9670 -0.2193 0.1295
vn 0.3719 0.6513 0.6614
vn 0.5069 -0.0540 -0.8603
vn 0.5995 -0.1968 -0.7758
vn 0.7718 0.1876 -0.6076
vn 0.1346 -0.0619 0.9890
vn 0.2160 -0.2226 0.9507
vn 0.5247 0.7444 -0.4131
vn -0.9298 -0.0619 -0.3629
vn -0.8735 -0.2226 -0.4330
vt 0.254186 0.768268
vt 0.127375 0.768268
vt 0.153401 0.350712
vt 0.221838 0.350712
vt 0.681597 0.703454
vt 0.571675 0.766916
vt 0.571675 0.639991
vt 0.476910 0.753780
vt 0.380595 0.767319
vt 0.380595 0.349443
vt 0.436296 0.369711
vt 0.436640 0.000000
vt 0.179371 0.000000
vt 0.118439 0.779049
vt -0.000000 0.761844
vt 0.057722 0.381802
vt 0.127375 0.364023
vt 0.000000 0.000000
vt 0.769894 0.397124
vt 0.831483 0.381567
vt 0.847406 0.643901
vt 0.796916 0.656655
vt 0.476910 0.757755
vt 0.545290 0.718275
vt 0.545290 0.797233
vt 0.769894 0.805684
vt 0.694306 0.816781
vt 0.681596 0.552123
vt 0.746809 0.590405
vt 0.769894 0.381567
vt 0.769895 0.808498
vt 0.957730 0.381567
vt 1.000000 0.388903
vt 0.971622 0.605296
vt 0.932982 0.647185
vt 1.000000 0.822131
vt 0.585458 0.627797
vt 0.476910 0.631531
vt 0.511281 0.242728
vt 0.569862 0.240714
vt 0.254186 0.750276
vt 0.350646 0.694586
vt 0.350646 0.805968
vt 0.254186 0.029068
vt 0.360703 -0.000000
vt 0.380595 0.398460
vt 0.315078 0.365957
vt 0.254186 0.694586
vt 0.585458 0.000000
vt 0.681597 0.639991
vt 0.585458 0.627680
vt 0.623496 0.292060
vt 0.680609 0.250909
vt 0.585458 0.000000
vt 0.901261 0.764811
vt 0.847406 0.752963
vt 0.888831 0.539670
vt 0.932982 0.549383
vt 0.552032 0.718275
vt 0.476910 0.674901
vt 0.552032 0.631531
vt 0.785340 0.357547
vt 0.702940 0.381567
vt 0.681596 0.164874
vt 0.753606 0.184007
vt 0.785340 0.000000
vt 0.847406 0.381567
vt 0.859706 0.371303
vt 0.785340 0.354741
vt 0.803097 0.179192
vt 0.866557 0.153776
vt 0.785340 -0.000000
s 1
usemtl Grass.002
f 1/1/1 2/2/1 7/3/1 4/4/1
f 2/5/2 1/6/2 3/7/2
f 3/8/3 1/9/3 4/10/3 5/11/3
f 5/11/4 4/10/4 6/12/4
f 4/4/5 7/3/5 6/13/5
f 2/14/6 3/15/6 5/16/6 7/17/6
f 7/17/7 5/16/7 6/18/7
f 8/19/8 9/20/8 14/21/8 11/22/8
f 9/23/2 8/24/2 10/25/2
f 10/26/9 8/27/9 11/28/9 12/29/9
f 12/29/10 11/28/10 13/30/10
f 11/22/11 14/21/11 13/31/11
f 9/32/12 10/33/12 12/34/12 14/35/12
f 14/35/13 12/34/13 13/36/13
f 15/37/14 16/38/14 21/39/14 18/40/14
f 16/41/2 15/42/2 17/43/2
f 17/44/15 15/45/15 18/46/15 19/47/15
f 19/47/16 18/46/16 20/48/16
f 18/40/17 21/39/17 20/49/17
f 16/50/18 17/51/18 19/52/18 21/53/18
f 21/53/19 19/52/19 20/54/19
f 22/55/20 23/56/20 28/57/20 25/58/20
f 23/59/2 22/60/2 24/61/2
f 24/62/21 22/63/21 25/64/21 26/65/21
f 26/65/22 25/64/22 27/66/22
f 25/58/23 28/57/23 27/67/23
f 23/68/24 24/69/24 26/70/24 28/71/24
f 28/71/25 26/70/25 27/72/25
