# Blender 4.2.3 LTS
# www.blender.org
mtllib grass3.mtl
o grass3
v 0.026818 -0.000000 -0.021364
v 0.043089 0.000000 0.030758
v 0.080093 -0.000000 -0.009394
v 0.066153 0.183709 0.018404
v 0.052813 0.183709 -0.024325
v 0.092152 0.150663 -0.013159
v 0.145487 0.294056 -0.029809
v -0.033826 -0.000000 -0.010003
v 0.021365 -0.000000 -0.033504
v -0.026583 -0.000000 -0.069551
v 0.005332 0.147824 -0.057361
v -0.039914 0.147824 -0.038094
v -0.032021 0.121233 -0.082320
v -0.056069 0.236616 -0.138795
v 0.019210 0.000000 0.058415
v -0.039474 0.000000 0.024831
v -0.039217 0.000000 0.092446
v -0.043451 0.220461 0.061046
v -0.011780 0.220461 0.079170
v -0.043556 0.205629 0.097857
v -0.078167 0.399771 0.156915
vn -0.0000 -1.0000 -0.0000
vn 0.1386 -0.1649 -0.9765
vn 0.2268 -0.0454 -0.9729
vn 0.7400 -0.0454 0.6710
vn -0.9454 0.1385 0.2951
vn 0.6696 -0.1649 0.7242
vn -0.7394 0.6325 0.2308
vn -0.9741 -0.2226 -0.0400
vn -0.9898 -0.0619 -0.1285
vn 0.5933 -0.0619 -0.8026
vn 0.3848 0.1876 0.9037
vn 0.6462 -0.2226 -0.7300
vn 0.2616 0.7444 0.6144
vn 0.5525 -0.1509 0.8197
vn 0.5059 -0.0110 0.8625
vn -0.9998 -0.0194 -0.0013
vn 0.4911 0.1498 -0.8581
vn -0.9856 -0.1558 -0.0656
vn 0.4333 0.4887 -0.7572
vt 0.513557 0.633306
vt 0.604190 0.685632
vt 0.513557 0.737961
vt 0.737616 0.281960
vt 0.651024 0.232019
vt 0.768423 -0.000000
vt 0.768423 0.569097
vt 0.668076 0.585428
vt 0.413318 0.000000
vt 0.513557 0.021309
vt 0.473741 0.308323
vt 0.385973 0.354542
vt 0.898616 0.000000
vt 1.000000 0.000000
vt 0.983635 0.354337
vt 0.900522 0.354337
vt 0.513557 0.599661
vt 0.902297 0.575314
vt 0.385973 0.657147
vt 0.485542 0.599661
vt 0.485542 0.714635
vt 0.556353 0.262564
vt 0.651024 0.286095
vt 0.513557 0.503711
vt 0.513557 0.033682
vt 0.621704 0.000000
vt 0.788657 -0.000000
vt 0.898616 0.026180
vt 0.863501 0.256246
vt 0.768423 0.285856
vt 0.880637 0.935638
vt 0.768423 0.934035
vt 0.768423 0.652979
vt 0.860418 0.654292
vt 0.898616 0.490308
vt 0.774131 0.490308
vt 0.625788 0.633306
vt 0.513557 0.568510
vt 0.625788 0.503711
vt 0.074217 0.388796
vt -0.000000 0.372547
vt 0.128676 0.000000
vt 0.128676 0.779198
vt 0.001462 0.800710
vt 0.256606 0.789702
vt 0.128676 0.769938
vt 0.179897 0.380130
vt 0.253933 0.362821
vt 0.385973 0.772466
vt 0.256606 0.772466
vt 0.281266 0.348434
vt 0.351083 0.348435
vt 0.128676 0.000000
vt 0.303860 -0.000000
s 1
usemtl Grass.001
f 2/1/1 1/2/1 3/3/1
f 6/4/2 5/5/2 7/6/2
f 3/7/3 1/8/3 5/5/3 6/4/3
f 2/9/4 3/10/4 6/11/4 4/12/4
f 1/13/5 2/14/5 4/15/5 5/16/5
f 4/12/6 6/11/6 7/17/6
f 5/16/7 4/15/7 7/18/7
f 9/19/1 8/20/1 10/21/1
f 13/22/8 12/23/8 14/24/8
f 10/25/9 8/26/9 12/23/9 13/22/9
f 9/27/10 10/28/10 13/29/10 11/30/10
f 8/31/11 9/32/11 11/33/11 12/34/11
f 11/30/12 13/29/12 14/35/12
f 12/34/13 11/33/13 14/36/13
f 16/37/1 15/38/1 17/39/1
f 20/40/14 19/41/14 21/42/14
f 17/43/15 15/44/15 19/41/15 20/40/15
f 16/45/16 17/46/16 20/47/16 18/48/16
f 15/49/17 16/50/17 18/51/17 19/52/17
f 18/48/18 20/47/18 21/53/18
f 19/52/19 18/51/19 21/54/19
