# Blender 4.2.3 LTS
# www.blender.org
mtllib shield.mtl
o Shield
v -2.154825 -0.276686 2.457945
v -2.154825 0.003312 2.457945
v -2.154825 -0.276687 -2.516445
v -2.154825 0.003312 -2.516445
v -1.874826 -0.276686 2.457945
v -1.874826 0.003312 2.457945
v -1.874826 -0.276687 -2.516445
v -1.874826 0.003312 -2.516445
v -2.154825 -0.276687 -2.228096
v -2.154825 0.003312 -2.228096
v -1.874826 -0.276687 -2.228096
v -1.874826 0.003312 -2.228096
v -2.154825 -0.276686 2.206004
v -1.874826 0.003312 2.206004
v -2.154825 0.003312 2.206004
v -1.874826 -0.276686 2.206004
v 2.025843 0.003312 -2.516445
v 2.025843 -0.276687 -2.516445
v 2.025843 -0.276687 -2.228096
v 2.025843 0.003312 2.206004
v 2.025843 0.003312 2.457945
v 2.025843 -0.276686 2.457945
v 2.025843 0.003312 -2.228096
v 2.025843 -0.276686 2.206004
v 1.903804 -3.004815 13.373705
v 1.903804 3.824935 13.373705
v 1.903804 -3.004817 -13.252818
v 1.903804 3.824934 -13.252818
v 2.103804 -3.004815 13.373705
v 2.103804 3.824935 13.373705
v 2.103804 -3.004817 -13.252818
v 2.103804 3.824934 -13.252818
vn -1.0000 -0.0000 -0.0000
vn -0.0000 -0.0000 -1.0000
vn -0.0000 -0.0000 1.0000
vn -0.0000 -1.0000 -0.0000
vn -0.0000 1.0000 -0.0000
vn 1.0000 -0.0000 -0.0000
vt 0.513004 0.549633
vt 0.523519 0.549633
vt 0.523519 0.560463
vt 0.513004 0.560463
vt 0.549058 0.373642
vt 0.559574 0.373642
vt 0.559574 0.384158
vt 0.549058 0.384158
vt 0.580605 0.520137
vt 0.570089 0.520137
vt 0.570089 0.373642
vt 0.580605 0.373642
vt 0.559574 0.520137
vt 0.570089 0.530653
vt 0.559574 0.530653
vt 0.670015 0.009462
vt 0.659499 0.009462
vt 0.659499 0.000000
vt 0.670015 0.000000
vt 0.523519 0.196283
vt 0.513004 0.196283
vt 0.513004 0.186821
vt 0.523519 0.186821
vt 0.523519 0.373642
vt 0.513004 0.373642
vt 0.513004 0.362812
vt 0.523519 0.362812
vt 0.670015 0.186821
vt 0.659499 0.186821
vt 0.659499 0.175991
vt 0.670015 0.175991
vt 0.559574 0.373642
vt 0.513004 0.383104
vt 0.523519 0.383104
vt 0.513004 0.373642
vt 0.523519 0.373642
vt 0.549058 0.540171
vt 0.538542 0.540171
vt 0.538542 0.373642
vt 0.549058 0.373642
vt 0.558520 0.530653
vt 0.558520 0.541169
vt 0.549058 0.541169
vt 0.549058 0.530653
vt 0.549058 0.551001
vt 0.538542 0.551001
vt 0.513004 0.175991
vt 0.580605 0.373642
vt 0.591121 0.373642
vt 0.591121 0.520137
vt 0.580605 0.520137
vt 0.513004 0.009462
vt 0.513004 0.000000
vt 0.670015 0.196283
vt 0.549058 0.530653
vt 0.670015 0.362812
vt 0.670015 0.373642
vt -0.000000 0.000000
vt 0.256502 0.000000
vt 0.256502 1.000000
vt -0.000000 1.000000
vt 0.531031 0.373642
vt 0.531031 0.630144
vt 0.523519 0.630144
vt 0.523519 0.373642
vt 0.513004 1.000000
vt 0.256502 1.000000
vt 0.256502 0.000000
vt 0.513004 0.000000
vt 0.538542 0.373642
vt 0.538542 0.630144
vt 0.677526 1.000000
vt 0.670015 1.000000
vt 0.677526 0.000000
vt 0.685038 1.000000
vt 0.677526 1.000000
vt 0.677526 0.000000
vt 0.685038 0.000000
s 0
usemtl Bubble
f 9/1/1 10/2/1 4/3/1 3/4/1
f 3/5/2 4/6/2 8/7/2 7/8/2
f 12/9/3 11/10/3 19/11/3 23/12/3
f 5/13/3 6/10/3 2/14/3 1/15/3
f 13/16/4 16/17/4 5/18/4 1/19/4
f 14/20/5 15/21/5 2/22/5 6/23/5
f 8/24/5 4/25/5 10/26/5 12/27/5
f 3/28/4 7/29/4 11/30/4 9/31/4
f 6/10/3 5/13/3 22/32/3 21/11/3
f 13/33/1 15/34/1 10/2/1 9/1/1
f 1/35/1 2/36/1 15/34/1 13/33/1
f 12/27/5 10/26/5 15/21/5 14/20/5
f 9/31/4 11/30/4 16/17/4 13/16/4
f 11/37/6 12/38/6 14/39/6 16/40/6
f 24/41/6 20/42/6 21/43/6 22/44/6
f 18/45/6 17/46/6 23/38/6 19/37/6
f 11/30/4 7/29/4 18/22/4 19/47/4
f 16/48/2 14/49/2 20/50/2 24/51/2
f 5/18/4 16/17/4 24/52/4 22/53/4
f 14/20/5 6/23/5 21/28/5 20/54/5
f 7/8/2 8/7/2 17/15/2 18/55/2
f 8/24/5 12/27/5 23/56/5 17/57/5
f 25/58/1 26/59/1 28/60/1 27/61/1
f 27/62/2 28/63/2 32/64/2 31/65/2
f 31/66/6 32/67/6 30/68/6 29/69/6
f 29/70/3 30/71/3 26/63/3 25/62/3
f 27/72/4 31/73/4 29/19/4 25/74/4
f 32/75/5 28/76/5 26/77/5 30/78/5
