# Blender 4.2.3 LTS
# www.blender.org
mtllib bubble.mtl
o Sphere
v -0.225891 -0.618062 -0.771975
v -0.202274 0.903317 -0.423872
v 0.196115 0.199514 -0.980482
v 0.172654 0.703182 -0.717184
v 0.385242 0.487290 -0.794419
v 0.224762 -0.369702 -0.927231
v 0.558883 -0.149714 -0.831077
v 0.248711 -0.757496 -0.632487
v 0.496393 0.788463 -0.391557
v 0.652487 0.409493 -0.668421
v 0.624289 -0.487417 -0.628039
v 0.095284 1.003959 0.083724
v 0.844562 0.108868 -0.547531
v 0.295050 -0.949704 -0.232168
v 0.189834 0.975984 -0.203282
v 0.850226 0.475433 -0.260919
v 0.943949 -0.191811 -0.335434
v 0.759822 -0.641350 -0.220106
v 0.674180 0.763681 0.002109
v 0.881804 0.467887 0.181001
v 1.007736 0.127230 0.139839
v 0.956628 -0.295861 0.173572
v 0.455747 -0.901325 0.002548
v 0.756879 0.292918 0.599509
v 0.411633 0.895946 0.221526
v 0.599604 0.638968 0.497466
v 0.765762 -0.098975 0.650062
v 0.731202 -0.588612 0.413439
v 0.371926 0.100138 0.941452
v 0.345413 0.479008 0.825073
v 0.384926 -0.410268 0.852270
v 0.374918 -0.805327 0.506653
v 0.158944 -0.965865 0.244808
v -0.000045 -0.031517 1.019163
v 0.183961 0.870112 0.503188
v -0.183979 0.307755 0.949415
v -0.183979 -0.307755 0.949415
v -0.236097 -0.607486 0.787473
v -0.268285 0.597697 0.788147
v -0.601983 0.077002 0.812629
v -0.264792 -0.864433 0.477592
v -0.198494 0.897346 0.428204
v -0.667528 -0.279475 0.712111
v -0.697849 0.550484 0.500474
v -0.893623 0.098976 0.458703
v -0.554854 0.805655 0.256621
v -0.898113 -0.388605 0.275974
v -0.721828 -0.600535 0.397319
v -0.884792 0.475433 0.090034
v -1.005684 0.130347 0.017193
v -0.956011 -0.313439 -0.047493
v -0.936275 -0.001141 -0.408912
v -0.444899 -0.915720 -0.028884
v -0.627993 0.767755 -0.228925
v -0.827658 0.479008 -0.339171
v -0.746182 -0.661925 -0.189317
v -0.278834 0.970951 -0.019202
v -0.566425 0.475433 -0.685657
v -0.624227 0.098976 -0.786963
v -0.728936 -0.371083 -0.618511
v -0.297418 0.588597 -0.778600
v -0.209111 0.071271 -0.990741
v -0.288332 -0.300258 -0.919952
v -0.268267 -0.864451 -0.474137
v -0.130902 -1.002543 -0.021483
vn -0.2725 -0.8430 -0.4638
vn 0.2780 -0.9259 -0.2557
vn -0.1073 -0.9939 -0.0237
vn 0.1592 0.6937 -0.7024
vn 0.3823 0.4742 -0.7931
vn 0.1911 0.1952 -0.9620
vn 0.5682 -0.1180 -0.8144
vn 0.2029 -0.3548 -0.9127
vn 0.1948 0.9551 -0.2233
vn 0.4932 0.7755 -0.3942
vn 0.6352 0.3979 -0.6619
vn 0.8446 0.0959 -0.5268
vn 0.6250 -0.4889 -0.6086
vn 0.9280 -0.1776 -0.3276
vn 0.7430 -0.6360 -0.2086
vn 0.2508 -0.7490 -0.6133
vn 0.8553 0.4457 -0.2642
vn 0.6557 0.7551 -0.0019
vn 0.4885 -0.8718 0.0360
vn 0.9854 0.1150 0.1257
vn 0.0791 0.9927 0.0906
vn 0.4234 0.8820 0.2069
vn 0.9388 -0.2987 0.1717
vn 0.7205 -0.5698 0.3951
vn 0.1394 -0.9586 0.2483
vn 0.3390 -0.7850 0.5185
vn 0.5960 0.6327 0.4944
vn 0.7503 0.2788 0.5994
vn 0.7605 -0.1061 0.6406
vn 0.1778 0.8330 0.5239
vn 0.3203 0.4791 0.8173
vn 0.3805 0.0982 0.9195
vn 0.3676 -0.4127 0.8334
vn -0.0053 -0.0198 0.9998
vn -0.1886 -0.2922 0.9376
vn -0.2106 -0.6065 0.7667
vn -0.2521 -0.8493 0.4638
vn -0.2137 0.8792 0.4258
vn -0.1751 0.2891 0.9412
vn -0.5776 0.0961 0.8106
vn -0.2619 0.5918 0.7623
vn -0.6518 -0.2834 0.7035
vn -0.6814 -0.6211 0.3872
vn -0.6900 0.5209 0.5026
vn -0.8884 0.0946 0.4491
vn -0.8973 -0.3530 0.2650
vn -0.4616 -0.8870 -0.0115
vn -0.5523 0.7947 0.2517
vn -0.8711 0.4806 0.1014
vn -0.2785 0.9603 -0.0163
vn -0.6098 0.7583 -0.2304
vn -0.9490 -0.3073 -0.0702
vn -0.7343 -0.6493 -0.1980
vn -0.9907 0.1299 0.0406
vn -0.9129 0.0069 -0.4081
vn -0.8210 0.4492 -0.3524
vn -0.6972 -0.3755 -0.6107
vn -0.2028 0.8808 -0.4278
vn -0.5812 0.4602 -0.6712
vn -0.2815 0.5669 -0.7742
vn -0.2232 0.0717 -0.9721
vn -0.2979 -0.2881 -0.9101
vn -0.2313 -0.6090 -0.7587
vn 0.8630 0.4685 0.1890
vn -0.6174 0.1022 -0.7800
vt 0.994708 0.056970
vt 0.883268 0.061114
vt 0.901865 0.000000
vt 0.481353 0.591395
vt 0.550079 0.598871
vt 0.568749 0.676801
vt 0.674387 0.640527
vt 0.656923 0.713987
vt 0.427217 0.479181
vt 0.510178 0.492165
vt 0.600522 0.553880
vt 0.672484 0.537684
vt 0.927270 0.285299
vt 0.895081 0.208478
vt 0.994708 0.227926
vt 0.831320 0.329094
vt 0.791873 0.260912
vt 0.810982 0.152506
vt 0.953307 0.130233
vt 0.609550 0.456929
vt 0.530036 0.407701
vt 0.819438 0.060712
vt 0.766501 0.371796
vt 0.687885 0.281811
vt 0.398965 0.439207
vt 0.461416 0.389243
vt 0.703634 0.195796
vt 0.700226 0.102197
vt 0.816447 0.004204
vt 0.595992 0.310777
vt 0.578440 0.379539
vt 0.511004 0.330141
vt 0.736737 0.026430
vt 0.056223 0.319338
vt 0.116983 0.274319
vt 0.121110 0.366325
vt 0.271779 0.312700
vt 0.194841 0.238429
vt 0.262734 0.185388
vt 0.337722 0.250652
vt 0.000000 0.311409
vt 0.021512 0.249175
vt 0.100673 0.178379
vt 0.166498 0.120141
vt 0.260123 0.072393
vt 0.351214 0.154285
vt 0.137752 0.046912
vt 0.163861 0.000000
vt 0.351214 0.238922
vt 0.400182 0.133209
vt 0.448177 0.181638
vt 0.430746 0.320207
vt 0.517825 0.236914
vt 0.347314 0.655097
vt 0.271835 0.718143
vt 0.293394 0.629920
vt 0.353251 0.113881
vt 0.374179 0.040180
vt 0.460191 0.022648
vt 0.347314 0.476607
vt 0.329211 0.532591
vt 0.260584 0.415589
vt 0.501302 0.073582
vt 0.577712 0.135106
vt 0.226945 0.517200
vt 0.166566 0.432887
vt 0.612267 0.085218
vt 0.632617 0.251929
vt 0.558543 -0.000000
vt 0.216900 0.600838
vt 0.127740 0.536993
vt 0.209687 0.687927
vt 0.119473 0.647028
vt 0.673930 0.086905
vt 0.687885 0.179920
vt 0.077474 0.480457
vt 0.040757 0.424885
vt 0.099739 0.379540
vt 0.000000 0.519300
vt 0.057687 0.595824
vt 0.982851 0.520904
vt 0.899864 0.466060
vt 1.000000 0.431300
vt 0.141247 0.734724
vt 0.687885 0.299871
vt 0.793807 0.371796
vt 0.924263 0.376495
vt 0.024544 0.664005
vt 0.045603 0.719963
vt 0.347314 0.502140
vt 0.425287 0.665378
vt 0.795272 0.602596
vt 0.690163 0.523554
vt 0.792730 0.517751
vt 0.382299 0.567432
vt 0.727678 0.644103
vt 0.774006 0.444365
vt 0.687885 0.424400
vt 0.056507 0.074226
vt 0.601950 0.379540
vt 0.674387 0.401671
vt 0.194377 0.332337
vt 0.338878 0.070654
vt 0.000000 0.120602
vt 0.917857 0.652421
vt 0.894868 0.578827
vt 1.000000 0.620067
vt 0.865500 0.692428
vt 0.523501 0.735948
s 1
usemtl Bubble
f 64/1/1 14/2/2 65/3/3
f 4/4/4 5/5/5 3/6/6
f 3/6/6 7/7/7 6/8/8
f 15/9/9 9/10/10 4/4/4
f 5/5/5 10/11/11 3/6/6
f 7/7/7 10/11/11 13/12/12
f 7/13/7 11/14/13 6/15/8
f 13/16/12 17/17/14 7/13/7
f 11/14/13 18/18/15 8/19/16
f 10/11/11 9/10/10 16/20/17
f 15/9/9 19/21/18 9/10/10
f 14/2/2 18/18/15 23/22/19
f 13/16/12 16/23/17 21/24/20
f 15/9/9 12/25/21 25/26/22
f 18/18/15 22/27/23 28/28/24
f 14/2/2 23/22/19 33/29/25
f 65/30/3 14/31/2 33/32/25
f 23/22/19 28/28/24 32/33/26
f 25/34/22 26/35/27 19/36/18
f 32/33/26 33/29/25 23/22/19
f 21/37/20 24/38/28 27/39/29
f 21/37/20 27/39/29 22/40/23
f 12/41/21 35/42/30 25/34/22
f 25/34/22 35/42/30 26/35/27
f 26/35/27 35/42/30 30/43/31
f 26/35/27 30/43/31 24/38/28
f 24/38/28 30/43/31 29/44/32
f 27/39/29 31/45/33 28/46/24
f 29/44/32 34/47/34 31/45/33
f 34/47/34 37/48/35 31/45/33
f 31/49/33 37/50/35 38/51/36
f 31/49/33 38/51/36 32/52/26
f 32/52/26 38/51/36 41/53/37
f 32/52/26 41/53/37 33/32/25
f 35/54/30 12/55/21 42/56/38
f 41/53/37 65/30/3 33/32/25
f 34/57/34 36/58/39 40/59/40
f 36/60/39 39/61/41 40/62/40
f 40/59/40 43/63/42 37/50/35
f 37/50/35 43/63/42 38/51/36
f 38/51/36 43/63/42 48/64/43
f 40/62/40 44/65/44 45/66/45
f 43/63/42 47/67/46 48/64/43
f 41/53/37 48/64/43 53/68/47
f 45/69/45 47/67/46 43/63/42
f 44/65/44 46/70/48 49/71/49
f 46/70/48 57/72/50 54/73/51
f 47/67/46 51/74/52 56/75/53
f 47/67/46 56/75/53 48/64/43
f 50/76/54 51/77/52 47/78/46
f 50/76/54 52/79/55 51/77/52
f 49/71/49 54/73/51 55/80/56
f 50/76/54 55/80/56 52/79/55
f 52/81/55 60/82/57 51/83/52
f 57/72/50 2/84/58 54/73/51
f 53/68/47 56/75/53 64/85/1
f 60/82/57 64/86/1 56/87/53
f 55/80/56 54/73/51 58/88/59
f 10/11/11 5/5/5 4/4/4 9/10/10
f 2/84/58 61/89/60 54/73/51
f 57/90/50 12/25/21 15/9/9
f 61/91/60 4/4/4 3/6/6
f 62/92/61 6/93/8 63/94/62
f 61/91/60 2/95/58 4/4/4
f 64/1/1 8/19/16 14/2/2
f 62/92/61 3/96/6 6/93/8
f 1/97/63 6/93/8 8/98/16
f 2/95/58 15/9/9 4/4/4
f 3/6/6 10/11/11 7/7/7
f 8/19/16 6/15/8 11/14/13
f 36/99/39 34/47/34 29/44/32 30/43/31
f 7/13/7 17/17/14 11/14/13
f 8/19/16 18/18/15 14/2/2
f 13/12/12 10/11/11 16/20/17
f 18/18/15 11/14/13 17/17/14
f 16/20/17 9/10/10 19/21/18
f 17/17/14 13/16/12 21/24/20
f 16/20/17 19/21/18 20/100/64
f 21/101/20 16/20/17 20/100/64
f 17/17/14 21/24/20 22/27/23
f 15/9/9 25/26/22 19/21/18
f 18/18/15 17/17/14 22/27/23
f 23/22/19 18/18/15 28/28/24
f 20/102/64 19/36/18 26/35/27
f 20/102/64 26/35/27 24/38/28
f 21/37/20 20/102/64 24/38/28
f 22/40/23 27/39/29 28/46/24
f 28/46/24 31/45/33 32/103/26
f 27/39/29 24/38/28 29/44/32
f 27/39/29 29/44/32 31/45/33
f 35/54/30 42/56/38 39/61/41
f 30/43/31 35/42/30 39/104/41
f 30/43/31 39/104/41 36/99/39
f 44/65/44 39/61/41 42/56/38 46/70/48
f 34/57/34 40/59/40 37/50/35
f 12/55/21 57/72/50 42/56/38
f 49/71/49 50/76/54 45/66/45 44/65/44
f 38/51/36 48/64/43 41/53/37
f 40/62/40 39/61/41 44/65/44
f 41/53/37 53/68/47 65/30/3
f 40/59/40 45/69/45 43/63/42
f 42/56/38 57/72/50 46/70/48
f 58/105/59 59/106/65 52/81/55 55/107/56
f 45/66/45 50/76/54 47/78/46
f 49/71/49 46/70/48 54/73/51
f 53/68/47 48/64/43 56/75/53
f 50/76/54 49/71/49 55/80/56
f 56/87/53 51/83/52 60/82/57
f 61/108/60 62/92/61 59/106/65 58/105/59
f 52/81/55 59/106/65 60/82/57
f 60/82/57 1/97/63 64/86/1
f 58/88/59 54/73/51 61/89/60
f 53/68/47 64/85/1 65/30/3
f 63/94/62 60/82/57 59/106/65 62/92/61
f 2/95/58 57/90/50 15/9/9
f 1/97/63 60/82/57 63/94/62
f 64/86/1 1/97/63 8/98/16
f 62/109/61 61/91/60 3/6/6
f 63/94/62 6/93/8 1/97/63
