# Blender 4.2.3 LTS
# www.blender.org
mtllib rock4.mtl
o low_poly_rock_4
v 1.061184 1.113678 -0.053154
v 0.918722 -0.002538 0.737585
v -0.798467 1.091235 -0.400104
v -0.253288 1.045274 0.607156
v 0.000868 0.048080 -0.282714
v -0.235669 1.224663 0.309233
v -0.906037 0.748552 0.055809
v 1.009596 0.871711 0.354971
v 0.828121 0.715251 -0.342283
v -0.552799 0.189711 -0.824467
v -0.889282 0.223105 -0.799260
v 0.095277 1.095039 -0.409908
v -0.458904 1.127420 -0.418902
v -0.696252 1.090783 -0.611831
v 0.459056 1.228258 0.053377
v 0.158957 1.268845 -0.136698
v -0.120268 1.208935 -0.342364
v 0.186120 1.223669 0.591757
v 0.578523 0.012162 0.206169
v -0.788039 0.065788 -0.293766
v -0.577218 1.091031 0.089775
v 0.764606 0.163255 -0.214703
v -0.569092 0.224388 0.702153
v -0.790185 0.642982 -0.912845
v 0.984148 0.343322 0.079044
v 1.095018 0.332314 0.469682
v 0.954650 0.323948 -0.450355
v 0.927000 0.373423 -0.211468
v -0.540758 1.178267 -0.174939
v 0.041421 0.746939 0.893103
v -0.236275 0.363824 0.887516
v 0.828793 0.384769 0.846565
v -0.333913 0.671070 -0.845280
v 0.421311 0.704979 -0.424804
v 0.725995 0.081220 -0.692835
v 0.382179 0.170908 -0.774527
v -0.171801 0.002081 0.617115
v 0.197125 0.064580 0.860753
v 0.269014 -0.071562 0.076994
v -0.589123 -0.026642 -0.196245
v -0.109223 -0.043456 -0.719366
v 0.437599 -0.038921 -0.407701
v -1.047482 0.494624 -0.464113
v -0.885065 0.835174 -0.243175
v -1.005614 0.715849 -0.762585
v -0.792218 0.300826 0.280812
v -0.650916 0.668184 0.565854
v 0.790893 0.497180 -0.623194
v 0.447876 0.522844 0.812175
v 0.088400 0.235907 -0.955278
v -0.717529 0.230503 0.180497
v -0.887466 0.586473 -0.122715
vn 0.9498 0.2013 0.2394
vn 0.6294 0.2557 0.7338
vn 0.8015 0.1679 0.5740
vn 0.8279 0.1504 0.5404
vn 0.8560 -0.4621 -0.2317
vn 0.3082 -0.9482 -0.0767
vn 0.6184 -0.7854 0.0262
vn 0.9542 0.2949 0.0494
vn 0.8929 0.2245 -0.3902
vn 0.9124 0.3525 -0.2080
vn 0.8936 -0.4198 -0.1589
vn 0.7851 -0.0099 -0.6193
vn 0.9167 -0.0928 -0.3888
vn 0.7262 -0.6760 0.1247
vn 0.5750 -0.8129 0.0930
vn -0.3853 0.9224 0.0283
vn -0.1412 0.9855 -0.0943
vn -0.1401 0.9676 -0.2099
vn 0.2611 0.6298 -0.7315
vn 0.1723 0.9796 -0.1031
vn 0.3331 0.9241 0.1872
vn 0.3941 0.7311 -0.5569
vn -0.1123 0.9847 -0.1329
vn 0.2755 0.8309 0.4835
vn -0.0593 0.9982 0.0078
vn -0.3317 0.9088 0.2531
vn -0.6387 0.6351 0.4343
vn -0.4566 0.6209 0.6372
vn -0.6165 0.7287 0.2983
vn 0.4071 0.6465 0.6452
vn -0.3813 0.4150 0.8260
vn -0.2563 0.6897 0.6773
vn -0.4727 0.2710 0.8385
vn -0.2801 -0.5954 0.7531
vn -0.2809 -0.6180 0.7342
vn -0.2717 -0.4687 0.8405
vn 0.0855 -0.0344 0.9957
vn 0.1419 -0.2374 0.9610
vn 0.0732 -0.1005 0.9922
vn 0.9022 0.0908 0.4217
vn 0.2050 0.2927 0.9339
vn 0.0747 0.7549 -0.6516
vn 0.2844 0.6226 -0.7290
vn 0.2229 0.4921 -0.8415
vn 0.2795 0.3826 -0.8806
vn 0.3043 0.4364 -0.8467
vn 0.4246 -0.1154 -0.8980
vn 0.4796 -0.2050 -0.8532
vn 0.3331 0.0200 -0.9427
vn -0.0350 -0.0273 -0.9990
vn -0.0600 -0.0986 -0.9933
vn 0.0578 -0.1618 -0.9851
vn 0.2556 0.5826 -0.7715
vn 0.1773 0.6500 -0.7389
vn 0.1975 0.6845 -0.7017
vn 0.1130 0.6563 -0.7460
vn -0.2810 -0.7372 0.6145
vn -0.4784 -0.8691 0.1259
vn -0.6405 -0.7578 0.1247
vn -0.5112 -0.8354 0.2020
vn 0.1090 -0.9939 0.0152
vn -0.0226 -0.9954 -0.0927
vn -0.0199 -0.9985 -0.0509
vn 0.4754 -0.8730 0.1091
vn 0.1479 -0.9748 0.1670
vn 0.0247 -0.9797 0.1991
vn -0.1880 -0.9818 0.0266
vn -0.3106 -0.8930 -0.3255
vn -0.2592 -0.9163 -0.3054
vn -0.3800 -0.8676 -0.3208
vn 0.0714 -0.7012 -0.7094
vn -0.1205 -0.5893 -0.7988
vn 0.1345 -0.7296 -0.6705
vn -0.9012 -0.3689 0.2277
vn -0.9398 -0.2544 0.2281
vn -0.8870 -0.2879 0.3609
vn -0.6484 0.5450 0.5315
vn -0.7052 0.6525 0.2773
vn -0.9589 0.2465 0.1403
vn -0.9205 0.3711 0.1224
vn -0.9251 0.3165 0.2097
vn -0.1143 0.5706 -0.8132
vn -0.3293 0.5734 -0.7502
vn -0.9313 -0.3573 0.0714
vn -0.9386 -0.2007 -0.2804
vn -0.9126 -0.3931 -0.1124
vn -0.7028 0.6522 0.2841
vn -0.9856 -0.0943 0.1404
vn -0.9919 -0.0510 0.1159
vn -0.8690 -0.4533 0.1985
vn 0.8500 -0.4613 -0.2543
vn 0.6263 -0.7141 -0.3128
vn 0.8075 0.2154 -0.5492
vn 0.7267 0.0016 -0.6869
vn -0.1088 0.9926 -0.0546
vn 0.2592 0.1970 0.9455
vn 0.0344 -0.0395 0.9986
vn -0.4534 0.2774 0.8470
vn 0.1761 0.6662 0.7247
vn 0.1058 0.7786 -0.6185
vn 0.2590 0.1200 -0.9584
vn -0.2031 0.0501 -0.9779
vn -0.0961 -0.2387 -0.9663
vn 0.0206 -0.9956 0.0917
vn 0.0244 -0.9920 0.1241
vn -0.5465 -0.7667 0.3370
vn -0.0877 -0.9957 0.0286
vn 0.1501 -0.8230 -0.5478
vn 0.0955 -0.8381 -0.5370
vn -0.5298 -0.7737 0.3475
vn -0.2234 -0.9226 -0.3145
vn -0.1153 -0.9548 -0.2741
vn -0.1127 -0.8697 -0.4805
vn -0.9186 0.3680 0.1439
vn -0.6629 0.6762 -0.3215
vn -0.5881 -0.0789 -0.8049
vn -0.8897 -0.0118 0.4563
vn -0.8851 -0.0204 0.4650
vn -0.5302 0.1581 0.8330
vt 0.490147 0.426483
vt 0.624049 0.426899
vt 0.430040 0.490583
vt 0.571722 0.425127
vt 0.439565 0.393331
vt 0.675110 0.377003
vt 0.124264 0.782702
vt 0.143415 0.651350
vt 0.217609 0.744959
vt 0.584987 0.585960
vt 0.593497 0.635882
vt 0.494959 0.602973
vt 0.248562 0.823611
vt 0.192629 0.804475
vt 0.334774 0.769958
vt 0.183804 0.267817
vt 0.269615 0.210939
vt 0.245094 0.287174
vt 0.306953 0.199465
vt 0.251735 0.071286
vt 0.342478 0.000000
vt 0.667094 0.573877
vt 0.633049 0.500824
vt 0.667094 0.426483
vt 0.200765 0.346863
vt 0.103315 0.061474
vt 0.258817 0.134445
vt 0.115433 0.160297
vt -0.000000 0.286487
vt 0.045152 0.159503
vt 0.120435 0.259658
vt 0.388274 0.171209
vt 0.342478 0.426483
vt 0.430908 0.074869
vt 0.526742 0.133323
vt 0.612382 0.083859
vt 0.762017 0.104740
vt 0.675110 0.000000
vt 0.776935 0.033591
vt 0.675110 0.197814
vt 0.600442 0.333292
vt 0.567079 0.242199
vt 1.000000 0.565270
vt 0.920177 0.738342
vt 0.920177 0.545803
vt 0.342478 0.676951
vt 0.460130 0.667456
vt 0.571745 0.778909
vt 0.527283 0.846221
vt 0.535643 0.679794
vt 0.900282 0.648739
vt 0.815159 0.584603
vt 0.920177 0.538069
vt 0.969196 0.403478
vt 0.907711 0.291889
vt 0.969196 0.254901
vt 0.678836 0.088186
vt 0.756839 0.238022
vt 0.896183 0.208793
vt 0.957302 -0.000000
vt 0.979479 0.146562
vt 0.199023 0.597981
vt 0.296517 0.676311
vt 0.125686 0.823611
vt 0.125686 0.978449
vt 0.037285 0.907540
vt 0.979479 0.254901
vt 0.675110 0.556636
vt 0.741537 0.685818
vt 0.824868 0.745494
vt 0.707720 0.352569
vt 0.842194 0.324842
vt 0.151394 0.383631
vt 0.173262 0.484759
vt 0.303437 0.466182
vt 0.247352 0.475281
vt 0.258491 0.351910
vt 0.820894 0.417044
vt 0.859762 0.483407
vt 0.735047 0.478842
vt 0.082420 0.369275
vt 0.887303 0.286254
vt 0.896183 0.353804
vt 0.781930 0.221863
vt 0.603273 0.520578
vt 0.000000 0.657646
vt 0.028182 0.763719
vt 0.624049 0.728146
vt 0.624049 0.580512
vt 0.511776 0.000000
vt 0.392992 0.843995
vt 0.974711 0.483407
vt 0.827677 0.502386
vt 0.896183 0.426232
vt 0.342478 0.379483
vt 0.015917 0.534361
vt 0.100339 0.484759
vt 0.675110 0.312103
vt 0.316172 0.484759
vt 0.774626 0.811831
vt 0.675110 0.812500
vt 0.000000 0.969492
vt 0.714024 0.512160
vt 0.734273 0.892187
vt 0.916022 0.483407
vt 0.867112 0.145857
s 1
usemtl rock_gray.004
f 8/1/1 26/2/1 1/3/1
f 26/4/2 8/5/3 2/6/4
f 25/7/5 19/8/6 22/9/7
f 28/10/8 27/11/9 9/12/10
f 28/10/11 9/12/12 1/3/13
f 22/9/7 27/13/14 28/14/11
f 22/9/7 35/15/15 27/13/14
f 29/16/16 17/17/17 13/18/18
f 12/19/19 15/20/20 1/21/21
f 12/22/19 16/23/22 15/24/20
f 29/16/16 13/18/18 3/25/23
f 15/20/20 18/26/24 1/21/21
f 16/27/25 18/26/24 15/20/20
f 16/27/25 6/28/26 18/26/24
f 6/28/26 16/27/25 17/17/17
f 47/29/27 4/30/28 6/28/26
f 47/29/27 6/28/26 21/31/29
f 18/32/24 8/5/30 1/33/21
f 4/34/28 30/35/31 18/32/32
f 4/34/28 31/36/33 30/35/31
f 23/37/34 38/38/35 31/39/36
f 38/40/37 2/6/38 32/41/39
f 32/41/40 2/6/4 8/5/3
f 18/32/24 49/42/41 8/5/30
f 48/43/42 50/44/43 34/45/44
f 9/12/45 12/46/19 1/3/46
f 34/47/44 12/46/19 9/12/45
f 36/48/47 50/49/48 48/50/49
f 33/51/50 10/52/51 24/53/52
f 33/54/53 14/55/54 13/56/55
f 12/19/19 13/18/55 17/17/56
f 23/37/34 37/57/57 38/38/35
f 23/37/58 51/58/59 37/57/60
f 39/59/61 40/60/62 5/61/63
f 22/9/7 39/62/61 42/63/64
f 40/64/65 41/65/66 5/66/63
f 39/59/61 5/61/63 42/67/67
f 40/68/68 10/52/69 41/69/70
f 41/69/71 10/52/72 50/70/73
f 22/9/7 42/63/64 35/15/15
f 20/71/74 51/58/75 52/72/76
f 29/16/16 3/25/77 44/73/78
f 44/73/79 3/25/80 43/74/81
f 24/75/82 45/76/83 14/77/54
f 43/78/84 45/79/85 11/80/86
f 29/16/16 7/81/87 21/31/29
f 7/82/88 44/83/79 52/72/89
f 51/58/59 46/84/90 52/72/89
f 21/31/29 7/81/87 47/29/27
f 26/2/91 25/85/5 1/3/13
f 1/3/13 25/85/5 28/10/11
f 2/86/92 25/7/5 26/87/91
f 19/8/6 25/7/5 2/86/92
f 28/14/11 25/7/5 22/9/7
f 48/50/93 27/11/9 35/88/94
f 27/11/9 48/50/93 9/12/10
f 12/22/19 17/89/56 16/23/22
f 3/25/23 13/18/18 14/77/95
f 4/30/28 18/26/32 6/28/26
f 21/31/29 6/28/26 29/16/16
f 29/16/16 6/28/26 17/17/17
f 49/42/41 30/35/96 38/40/37
f 30/35/96 31/36/97 38/40/37
f 18/32/24 30/35/96 49/42/41
f 47/90/98 31/36/33 4/34/28
f 49/42/41 38/40/37 32/41/39
f 8/5/30 49/42/41 32/41/99
f 34/47/44 33/91/53 12/46/19
f 50/49/43 33/91/53 34/47/44
f 9/92/100 48/43/42 34/45/44
f 35/88/101 36/48/47 48/50/49
f 50/70/102 10/52/51 33/51/50
f 24/53/52 10/52/51 11/93/103
f 33/54/53 24/94/82 14/55/54
f 12/19/19 33/95/53 13/18/55
f 38/96/104 37/97/105 19/8/6
f 37/97/105 39/62/61 19/8/6
f 37/57/60 51/58/59 40/98/106
f 39/62/61 37/97/105 40/99/62
f 38/96/104 19/8/6 2/86/107
f 50/70/73 36/100/108 42/101/109 41/69/71
f 19/8/6 39/62/61 22/9/7
f 42/102/67 5/66/63 41/65/66
f 51/58/59 20/71/110 40/98/106
f 40/68/68 20/103/111 10/52/69
f 10/52/69 20/103/111 11/93/112
f 35/104/113 42/101/109 36/100/108
f 43/78/81 52/72/89 44/83/79
f 20/71/74 43/78/84 11/80/86
f 43/78/84 20/71/74 52/72/76
f 45/76/114 43/74/81 3/25/80
f 45/76/115 3/25/115 14/77/115
f 11/93/116 45/105/116 24/53/116
f 7/82/88 46/84/90 47/106/117
f 47/106/117 46/84/90 23/37/118
f 29/16/16 44/73/78 7/81/87
f 52/72/89 46/84/90 7/82/88
f 46/84/90 51/58/59 23/37/58
f 47/106/98 23/37/119 31/39/33
