# Blender 4.2.3 LTS
# www.blender.org
mtllib rock3.mtl
o low_poly_rock_3
v -0.685005 0.422746 0.899397
v -0.142921 1.044375 -0.919800
v 0.013081 1.512371 0.420302
v 0.457134 1.380062 -0.199680
v 0.984251 0.453081 -0.980785
v 0.184080 1.184905 0.491042
v -0.036205 0.040485 0.405946
v -0.302931 -0.109074 -0.424330
v 0.746324 0.087232 -0.987766
v -0.147596 -0.020470 -1.061751
v 0.070334 0.912664 0.856179
v -0.284318 0.390507 -0.901340
v 0.562908 0.035407 -0.683543
v 0.634049 1.372996 0.109320
v 0.379013 1.456357 0.254949
v 0.768192 1.010540 0.527731
v 0.777037 0.907127 0.069971
v 0.017325 1.681617 -0.274671
v -0.226673 1.420674 -0.372221
v -0.589704 1.395190 -0.134302
v -0.614991 0.572711 -0.572232
v -0.498603 1.405781 0.171207
v -0.603835 0.868353 0.594060
v -0.162598 1.295056 0.541650
v 0.952272 0.331323 -0.500507
v 0.572499 -0.055749 -0.416294
v 0.150699 -0.040664 -0.722180
v -0.837960 0.058206 0.135251
v -0.095490 -0.069902 -0.071116
v 1.059387 0.286599 -0.076672
v 0.365212 0.367565 -1.013304
v 0.654821 0.849943 -0.853654
v -0.471388 0.909239 -0.667399
v -0.950871 0.511580 0.019789
v 0.575520 1.256559 -0.459900
v 0.257869 1.358263 -0.712990
v -0.787641 1.025948 -0.325190
v -0.016217 1.724730 0.013140
v 0.741271 0.341175 0.211930
v 0.324734 0.065065 0.262208
v -0.035864 -0.157939 -0.835149
v -0.752195 0.187158 0.521703
v -0.759184 0.082038 -0.497332
v -0.413770 -0.034764 0.266097
v -0.214239 0.154115 0.907882
v 1.011436 0.525501 0.397335
v 0.891500 0.721475 -0.433077
v 0.418305 1.077994 -0.760621
v -0.522760 0.112251 0.750200
v -0.169732 0.377355 1.028319
v 0.658369 0.803547 0.861628
v 0.556072 0.254084 0.761024
vn 0.3198 0.8493 0.4200
vn 0.3331 0.3620 0.8706
vn 0.2935 0.6252 0.7232
vn 0.5091 0.3269 0.7962
vn 0.5445 0.2926 0.7861
vn 0.5737 0.8176 -0.0480
vn 0.4544 0.8879 -0.0709
vn 0.4752 0.8621 -0.1757
vn 0.8855 0.4370 -0.1577
vn 0.9038 0.4189 -0.0878
vn 0.7767 0.5728 -0.2621
vn 0.2889 0.9465 -0.1438
vn 0.5758 0.8065 -0.1341
vn 0.9141 0.4012 -0.0589
vn 0.9470 0.3003 -0.1141
vn 0.4408 0.8719 -0.2133
vn 0.5284 0.8145 -0.2397
vn 0.6374 0.4688 -0.6116
vn 0.5464 0.5630 -0.6200
vn 0.5081 0.5975 -0.6204
vn -0.6822 0.7072 -0.1854
vn -0.4484 0.7030 -0.5520
vn -0.5345 0.7806 -0.3240
vn -0.6753 0.1043 -0.7301
vn -0.6676 0.0828 -0.7399
vn -0.7615 0.0843 -0.6427
vn -0.5555 0.5970 -0.5788
vn -0.4811 0.5921 -0.6465
vn -0.4376 0.6799 -0.5884
vn -0.8159 0.0043 -0.5781
vn -0.8990 0.3621 0.2464
vn -0.9008 0.3503 0.2565
vn -0.8843 0.3957 0.2477
vn -0.5183 0.8460 0.1252
vn -0.4902 0.7737 0.4014
vn -0.4318 0.8291 0.3551
vn -0.4303 0.5882 0.6847
vn -0.4092 0.7502 0.5195
vn -0.3454 0.5189 0.7820
vn -0.3503 0.4410 0.8264
vn -0.9771 0.2081 0.0440
vn -0.9203 0.2912 0.2615
vn -0.9572 0.0746 0.2797
vn 0.1985 0.7551 0.6248
vn 0.2822 0.5168 0.8083
vn 0.8374 0.2965 0.4592
vn 0.1989 0.7886 0.5819
vn 0.1768 0.7902 0.5869
vn 0.4467 -0.8504 0.2780
vn 0.2708 -0.8464 0.4586
vn 0.4286 -0.8707 0.2411
vn 0.0831 -0.9887 0.1245
vn 0.3800 -0.9245 -0.0304
vn 0.3149 -0.9200 0.2331
vn 0.4253 -0.8997 -0.0987
vn 0.6965 -0.7052 -0.1323
vn 0.6655 -0.7058 -0.2427
vn 0.5981 -0.7999 0.0494
vn 0.1399 -0.9370 0.3201
vn 0.3062 -0.8666 0.3939
vn 0.0777 -0.7530 0.6534
vn -0.1322 -0.9912 -0.0059
vn 0.1446 -0.8128 -0.5644
vn -0.3001 -0.9417 0.1523
vn -0.3807 -0.9163 -0.1246
vn -0.1162 -0.9725 0.2021
vn 0.0956 -0.9568 0.2747
vn -0.3551 -0.8721 0.3366
vn 0.1394 -0.9596 0.2442
vn 0.3860 -0.9084 0.1607
vn -0.6635 -0.5761 0.4774
vn -0.4801 -0.8145 0.3259
vn -0.6347 0.1157 -0.7640
vn -0.0828 0.2305 -0.9695
vn 0.0158 0.1479 -0.9889
vn 0.0632 -0.0050 -0.9980
vn 0.0289 0.1656 -0.9858
vn -0.0242 0.3272 -0.9446
vn 0.1732 0.3143 -0.9334
vn -0.6708 0.0652 -0.7387
vn -0.7719 0.1273 -0.6229
vn 0.1029 0.2083 -0.9726
vn 0.2441 0.2966 -0.9233
vn -0.9710 0.0964 0.2186
vn 0.2243 -0.4970 0.8383
vn -0.2696 0.4932 0.8271
vn -0.2859 -0.4858 0.8260
vn -0.3113 -0.4586 0.8323
vn -0.2500 -0.5224 0.8153
vn 0.9183 0.3895 -0.0703
vn 0.7205 0.6631 -0.2029
vn 0.4089 0.6747 -0.6144
vn -0.4874 0.6830 -0.5439
vn -0.3356 0.7188 -0.6088
vn -0.3952 0.6222 -0.6758
vn -0.8709 0.0560 -0.4883
vn 0.1922 0.7714 0.6066
vn 0.6913 -0.2527 0.6770
vn 0.8362 -0.5423 -0.0818
vn 0.3026 -0.9529 0.0201
vn -0.4100 -0.8755 -0.2558
vn 0.8871 0.4474 -0.1137
vn 0.9304 0.3545 -0.0932
vn 0.9843 0.1644 -0.0639
vn 0.9856 0.1362 0.1002
vn -0.1627 0.1515 -0.9750
vn -0.9717 -0.2200 0.0863
vn -0.9541 -0.2705 -0.1290
vn -0.3797 -0.3795 0.8437
vn 0.2058 0.0104 0.9785
vn 0.1618 -0.0232 0.9866
vn -0.0411 -0.1725 0.9841
vn 0.3624 0.1341 0.9223
vn -0.1500 0.5773 0.8026
vn -0.4257 -0.8514 -0.3066
vt 0.497190 0.512388
vt 0.419181 0.427920
vt 0.503820 0.442304
vt 0.668635 0.232047
vt 0.746634 0.240402
vt 0.701616 0.312596
vt 0.733649 0.369088
vt 0.411149 0.559257
vt 0.367373 0.608685
vt 0.396491 0.733029
vt 0.294110 0.701924
vt 0.486485 0.569480
vt 0.363544 0.454514
vt 0.489530 0.661967
vt 0.292946 0.560977
vt 0.295369 0.628651
vt 0.148303 0.909265
vt 0.111518 0.978892
vt 0.111518 0.865087
vt 0.155791 0.120655
vt 0.118986 0.241639
vt 0.088026 0.153753
vt 0.118850 0.044884
vt 0.201751 0.000000
vt 0.606855 0.097618
vt 0.664293 0.134954
vt 0.664912 0.232925
vt 0.668635 0.002666
vt 0.525535 0.045569
vt 0.570053 -0.000000
vt 0.473637 0.161539
vt 0.428516 0.053697
vt 0.371868 0.217515
vt 0.421403 0.293936
vt 0.797077 0.171887
vt 0.703291 0.176613
vt 0.817720 0.337577
vt 0.854847 0.276068
vt 0.931927 0.369088
vt 0.736533 0.510004
vt 0.688580 0.570015
vt 0.668635 0.466860
vt 0.138672 0.647678
vt 0.012390 0.738223
vt 0.055482 0.587789
vt 0.812281 0.649022
vt 0.798546 0.705728
vt 0.695654 0.661375
vt 0.758016 0.769260
vt 0.162287 0.942851
vt 0.148303 0.977451
vt 0.148303 0.865087
vt 0.063808 0.865087
vt 0.111519 0.948433
vt 0.063808 0.971036
vt 0.876522 0.717596
vt 0.137807 0.811736
vt 0.174982 0.857819
vt -0.000000 0.865087
vt 0.185890 0.717591
vt 0.105615 0.792858
vt 0.292946 0.585455
vt 0.292946 0.722442
vt 0.197826 0.567876
vt 0.156003 0.436863
vt 0.219056 0.462515
vt 0.907989 0.476333
vt 0.843625 0.504353
vt 0.784763 0.394223
vt 0.123516 0.547914
vt 0.269876 0.427920
vt 0.275762 0.505762
vt 0.926979 0.369088
vt 0.228072 0.151978
vt 0.088002 0.334862
vt 0.226344 0.333773
vt 0.255141 0.427920
vt 0.343405 0.397270
vt 0.339444 0.283280
vt 0.329214 0.210806
vt 0.000000 0.213324
vt 0.338518 0.141506
vt 0.548784 0.306335
vt 0.936604 0.073377
vt 0.961716 0.236560
vt 0.893605 0.082870
vt 0.343405 0.153601
vt 0.926258 0.027274
vt 0.852959 0.000000
vt 0.581227 0.620890
vt 0.292946 0.815708
vt 0.000000 0.865087
vt 0.063808 0.963451
vt 0.000000 1.000000
vt 0.343405 0.011788
vt 0.265757 0.053287
vt 0.341921 0.036627
vt 0.668635 0.305288
vt 0.668636 0.763245
vt 0.922192 0.744082
vt 0.573220 0.735581
vt 0.481257 0.803451
vt 0.387773 0.803787
vt 0.482913 0.356189
vt 0.606609 0.394691
vt 0.764995 0.066289
s 1
usemtl rock_gray.003
f 15/1/1 38/2/1 3/3/1
f 3/4/2 6/5/3 15/6/4
f 6/5/3 14/7/5 15/6/4
f 38/2/6 15/1/7 4/8/8
f 35/9/9 47/10/10 32/11/11
f 15/1/7 14/12/12 4/8/8
f 4/8/8 18/13/13 38/2/6
f 17/14/14 35/9/9 14/12/15
f 4/8/8 35/9/16 36/15/17
f 36/15/18 35/9/19 48/16/20
f 18/17/21 19/18/22 38/19/23
f 33/20/24 12/21/25 21/22/26
f 33/20/27 37/23/28 20/24/29
f 37/23/30 33/20/24 21/22/26
f 22/25/31 20/26/32 37/27/33
f 20/26/34 22/25/35 38/28/36
f 22/25/35 24/29/37 3/30/38
f 23/31/39 11/32/40 24/29/37
f 23/31/39 24/29/37 22/25/35
f 1/33/41 23/31/42 42/34/43
f 11/35/44 6/5/3 24/36/45
f 16/37/46 51/38/46 46/39/46
f 16/37/47 6/5/3 51/38/48
f 6/5/3 11/35/44 51/38/48
f 39/40/49 30/41/50 46/42/51
f 29/43/52 26/44/53 40/45/54
f 26/46/53 13/47/55 25/48/56
f 30/41/57 26/46/53 25/48/56
f 25/48/56 13/47/55 9/49/58
f 27/50/59 41/51/60 13/52/61
f 8/53/62 41/54/60 27/55/59
f 26/46/53 27/56/59 13/47/55
f 41/57/63 10/58/63 9/59/63
f 29/43/52 8/60/62 27/61/59
f 8/60/62 28/62/64 43/63/65
f 28/62/64 8/60/62 44/64/66
f 44/64/66 45/65/67 49/66/68
f 7/67/69 40/68/54 52/69/70
f 7/70/69 45/65/67 44/64/66
f 49/66/68 1/71/71 42/72/72
f 29/43/52 40/45/54 7/70/69
f 52/69/70 39/40/49 46/42/51
f 45/73/67 7/67/69 52/69/70
f 12/21/25 33/20/24 2/74/73
f 10/75/74 31/76/75 9/77/76
f 5/78/77 31/76/75 32/79/78
f 31/76/75 48/80/79 32/79/78
f 12/21/25 10/75/80 43/81/81
f 48/80/79 2/74/82 36/82/83
f 34/83/84 42/34/43 23/31/42
f 45/84/85 52/85/85 50/86/85
f 23/31/39 50/87/86 11/32/40
f 49/88/87 50/86/88 1/89/89
f 17/14/14 14/12/15 16/90/90
f 14/12/12 35/9/16 4/8/8
f 17/14/14 47/10/10 35/9/9
f 4/8/8 36/15/17 18/13/13
f 5/91/91 32/11/11 47/10/10
f 32/11/92 48/16/20 35/9/19
f 19/92/22 2/93/93 33/94/27
f 38/95/23 19/96/22 20/24/29
f 36/82/94 2/74/93 19/96/22
f 36/82/94 19/96/22 18/97/95
f 33/20/27 20/24/29 19/96/22
f 34/83/96 37/27/30 21/98/26
f 22/25/35 3/30/38 38/28/36
f 37/27/33 23/31/42 22/25/31
f 14/7/97 6/5/3 16/37/47
f 24/36/45 6/5/3 3/4/2
f 46/39/98 51/38/98 52/85/98
f 30/41/50 39/40/49 26/46/53
f 39/40/49 40/68/54 26/46/53
f 5/99/99 25/48/56 9/49/58
f 29/43/52 27/61/59 26/44/53
f 9/49/58 13/47/55 41/100/100
f 42/72/72 28/62/64 44/64/66
f 43/63/65 41/57/101 8/60/62
f 29/43/52 44/64/66 8/60/62
f 49/66/68 42/72/72 44/64/66
f 7/70/69 44/64/66 29/43/52
f 52/69/70 40/68/54 39/40/49
f 46/101/102 30/102/103 17/14/14
f 47/10/10 30/102/103 25/103/104
f 17/14/14 30/102/103 47/10/10
f 16/90/90 46/101/102 17/14/14
f 47/10/10 25/103/104 5/91/105
f 2/74/82 31/76/75 12/21/106
f 48/80/79 31/76/75 2/74/82
f 9/77/76 31/76/75 5/78/77
f 43/81/81 21/22/26 12/21/25
f 12/21/106 31/76/75 10/75/74
f 28/104/107 34/83/84 43/105/108
f 43/105/81 34/83/96 21/98/26
f 42/34/43 34/83/84 28/104/107
f 37/27/33 34/83/84 23/31/42
f 45/84/109 50/86/88 49/88/87
f 11/35/110 52/85/111 51/38/112
f 11/35/110 50/86/113 52/85/111
f 1/89/114 50/86/86 23/106/39
f 41/57/101 43/63/65 10/58/115
